<svg width="26" height="24" viewBox="0 0 26 24" fill="none" xmlns="http://www.w3.org/2000/svg">
<path d="M22.3789 12.0732L22.3786 12.0735L13.146 21.9228C13.1104 21.9607 13.0803 21.9783 13.06 21.987C13.0385 21.9963 13.0184 22 12.9997 22C12.981 22 12.9609 21.9963 12.9394 21.987C12.9191 21.9783 12.889 21.9607 12.8534 21.9228L3.62082 12.0735C1.45973 9.76806 1.45973 5.97993 3.62082 3.67449C5.71287 1.4427 9.04788 1.4427 11.1399 3.67449L11.5405 4.10186L12.9997 5.65848L14.4589 4.10186L14.8593 3.67469L14.8596 3.67435C15.8799 2.5854 17.2353 2 18.619 2C20.0027 2 21.358 2.58534 22.3783 3.6742L22.3788 3.67478C23.4036 4.76756 24 6.27605 24 7.874C24 9.47205 23.4035 10.9806 22.3789 12.0732Z" stroke="#1B3CEA" stroke-width="4"/>
</svg>
